<svg version="1.1" viewBox="0.0 0.0 720.0 720.0" fill="none" stroke="none" stroke-linecap="square" stroke-miterlimit="10" xmlns:xlink="http://www.w3.org/1999/xlink" xmlns="http://www.w3.org/2000/svg"><clipPath id="p.0"><path d="m0 0l720.0 0l0 720.0l-720.0 0l0 -720.0z" clip-rule="nonzero"/></clipPath><g clip-path="url(#p.0)"><path fill="#000000" fill-opacity="0.0" d="m0 0l720.0 0l0 720.0l-720.0 0z" fill-rule="evenodd"/><defs><linearGradient id="p.1" gradientUnits="userSpaceOnUse" gradientTransform="matrix(26.83281572999748 0.0 0.0 26.83281572999748 0.0 0.0)" spreadMethod="pad" x1="7.336181028542617E-4" y1="26.832815729997474" x2="26.83354934810033" y2="26.832815729997474"><stop offset="0.0" stop-color="#9c27b0"/><stop offset="1.0" stop-color="#3f51b5"/></linearGradient></defs><path fill="url(#p.1)" d="m0.01968504 360.0l0 0c0 -198.82251 161.17749 -360.0 360.0 -360.0l0 0c95.477936 0 187.04532 37.928463 254.55844 105.44156c67.51312 67.51309 105.44159 159.0805 105.44159 254.55844l0 0c0 198.82251 -161.17749 360.0 -360.00003 360.0l0 0c-198.82251 0 -360.0 -161.17749 -360.0 -360.0z" fill-rule="evenodd"/><path fill="#000000" fill-opacity="0.0" d="m263.52628 294.57507l0 130.89761" fill-rule="evenodd"/><path stroke="#ffffff" stroke-width="24.0" stroke-linejoin="round" stroke-linecap="butt" d="m263.52628 294.57507l0 130.89761" fill-rule="evenodd"/><path fill="#000000" fill-opacity="0.0" d="m456.42593 294.57507l0 130.89761" fill-rule="evenodd"/><path stroke="#ffffff" stroke-width="24.0" stroke-linejoin="round" stroke-linecap="butt" d="m456.42593 294.57507l0 130.89761" fill-rule="evenodd"/><path fill="#000000" fill-opacity="0.0" d="m263.91464 294.54916l96.44095 -43.62204" fill-rule="evenodd"/><path stroke="#ffffff" stroke-width="24.0" stroke-linejoin="round" stroke-linecap="butt" d="m263.91464 294.54916l96.44095 -43.62204" fill-rule="evenodd"/><path fill="#000000" fill-opacity="0.0" d="m456.42593 294.57507l-96.44095 -43.622055" fill-rule="evenodd"/><path stroke="#ffffff" stroke-width="24.0" stroke-linejoin="round" stroke-linecap="butt" d="m456.42593 294.57507l-96.44095 -43.622055" fill-rule="evenodd"/><path fill="#000000" fill-opacity="0.0" d="m263.52628 425.45868l96.44095 43.62204" fill-rule="evenodd"/><path stroke="#ffffff" stroke-width="24.0" stroke-linejoin="round" stroke-linecap="butt" d="m263.52628 425.45868l96.44095 43.62204" fill-rule="evenodd"/><path fill="#000000" fill-opacity="0.0" d="m456.42593 425.45868l-96.44095 43.62204" fill-rule="evenodd"/><path stroke="#ffffff" stroke-width="24.0" stroke-linejoin="round" stroke-linecap="butt" d="m456.42593 425.45868l-96.44095 43.62204" fill-rule="evenodd"/><path fill="#000000" fill-opacity="0.0" d="m263.52628 294.57507l96.44095 43.62204" fill-rule="evenodd"/><path stroke="#ffffff" stroke-width="24.0" stroke-linejoin="round" stroke-linecap="butt" d="m263.52628 294.57507l96.44095 43.62204" fill-rule="evenodd"/><path fill="#000000" fill-opacity="0.0" d="m456.42593 294.57507l-96.44095 43.62204" fill-rule="evenodd"/><path stroke="#ffffff" stroke-width="24.0" stroke-linejoin="round" stroke-linecap="butt" d="m456.42593 294.57507l-96.44095 43.62204" fill-rule="evenodd"/><path fill="#000000" fill-opacity="0.0" d="m359.9758 331.50034l0 137.60632" fill-rule="evenodd"/><path stroke="#ffffff" stroke-width="24.0" stroke-linejoin="round" stroke-linecap="butt" d="m359.9758 331.50034l0 137.60632" fill-rule="evenodd"/><path fill="#000000" fill-opacity="0.0" d="m263.56583 425.45868l-144.66142 87.27557" fill-rule="evenodd"/><path stroke="#ffffff" stroke-width="24.0" stroke-linejoin="round" stroke-linecap="butt" d="m263.56583 425.45868l-144.66142 87.27557" fill-rule="evenodd"/><path fill="#000000" fill-opacity="0.0" d="m359.9761 469.08652l0 169.63779" fill-rule="evenodd"/><path stroke="#ffffff" stroke-width="24.0" stroke-linejoin="round" stroke-linecap="butt" d="m359.9761 469.08652l0 169.63779" fill-rule="evenodd"/><path fill="#000000" fill-opacity="0.0" d="m118.930626 512.7144l240.97638 125.82678" fill-rule="evenodd"/><path stroke="#ffffff" stroke-width="24.0" stroke-linejoin="round" stroke-linecap="butt" d="m118.930626 512.7144l240.97638 125.82678" fill-rule="evenodd"/><path fill="#000000" fill-opacity="0.0" d="m601.06116 512.7144l-240.97641 125.82678" fill-rule="evenodd"/><path stroke="#ffffff" stroke-width="24.0" stroke-linejoin="round" stroke-linecap="butt" d="m601.06116 512.7144l-240.97641 125.82678" fill-rule="evenodd"/><path fill="#000000" fill-opacity="0.0" d="m456.42593 425.45868l144.6614 87.27557" fill-rule="evenodd"/><path stroke="#ffffff" stroke-width="24.0" stroke-linejoin="round" stroke-linecap="butt" d="m456.42593 425.45868l144.6614 87.27557" fill-rule="evenodd"/><path fill="#000000" fill-opacity="0.0" d="m118.85152 207.41953l0 305.19687" fill-rule="evenodd"/><path stroke="#ffffff" stroke-width="24.0" stroke-linejoin="round" stroke-linecap="butt" d="m118.85152 207.41953l0 305.19687" fill-rule="evenodd"/><path fill="#000000" fill-opacity="0.0" d="m263.56583 293.97845l-144.66142 -87.27559" fill-rule="evenodd"/><path stroke="#ffffff" stroke-width="24.0" stroke-linejoin="round" stroke-linecap="butt" d="m263.56583 293.97845l-144.66142 -87.27559" fill-rule="evenodd"/><path fill="#000000" fill-opacity="0.0" d="m599.48016 207.81187l-144.6614 87.27559" fill-rule="evenodd"/><path stroke="#ffffff" stroke-width="24.0" stroke-linejoin="round" stroke-linecap="butt" d="m599.48016 207.81187l-144.6614 87.27559" fill-rule="evenodd"/><path fill="#000000" fill-opacity="0.0" d="m601.1376 207.472l0 305.1969" fill-rule="evenodd"/><path stroke="#ffffff" stroke-width="24.0" stroke-linejoin="round" stroke-linecap="butt" d="m601.1376 207.472l0 305.1969" fill-rule="evenodd"/><path fill="#000000" fill-opacity="0.0" d="m359.897 81.47411l-240.9764 125.826775" fill-rule="evenodd"/><path stroke="#ffffff" stroke-width="24.0" stroke-linejoin="round" stroke-linecap="butt" d="m359.897 81.47411l-240.9764 125.826775" fill-rule="evenodd"/><path fill="#000000" fill-opacity="0.0" d="m360.17264 81.47411l240.97641 125.826775" fill-rule="evenodd"/><path stroke="#ffffff" stroke-width="24.0" stroke-linejoin="round" stroke-linecap="butt" d="m360.17264 81.47411l240.97641 125.826775" fill-rule="evenodd"/><path fill="#000000" fill-opacity="0.0" d="m119.75829 207.24756l240.97638 125.82678" fill-rule="evenodd"/><path stroke="#ffffff" stroke-width="24.0" stroke-linejoin="round" stroke-linecap="butt" d="m119.75829 207.24756l240.97638 125.82678" fill-rule="evenodd"/><path fill="#000000" fill-opacity="0.0" d="m600.2305 207.24756l-240.97635 125.82678" fill-rule="evenodd"/><path stroke="#ffffff" stroke-width="24.0" stroke-linejoin="round" stroke-linecap="butt" d="m600.2305 207.24756l-240.97635 125.82678" fill-rule="evenodd"/><path fill="#000000" fill-opacity="0.0" d="m360.35837 81.27705l0 169.63779" fill-rule="evenodd"/><path stroke="#ffffff" stroke-width="24.0" stroke-linejoin="round" stroke-linecap="butt" d="m360.35837 81.27705l0 169.63779" fill-rule="evenodd"/><path fill="#ffffff" d="m606.7095 196.70157l6.425171 10.8346405l-11.181091 6.6141815l-6.425171 -10.834656z" fill-rule="evenodd"/><path fill="#ffffff" d="m113.33052 196.63907l-6.4252014 10.8346405l11.181107 6.6141815l6.425194 -10.834656z" fill-rule="evenodd"/><path fill="#ffffff" d="m606.7095 523.28265l6.425171 -10.834656l-11.181091 -6.6141663l-6.425171 10.834625z" fill-rule="evenodd"/><path fill="#ffffff" d="m113.33052 523.34515l-6.4252014 -10.834656l11.181107 -6.6141663l6.425194 10.834625z" fill-rule="evenodd"/><path fill="#ffffff" d="m354.3386 70.868774l11.433075 -0.03150177l0 10.740158l-11.433075 0.03149414z" fill-rule="evenodd"/><path fill="#ffffff" d="m354.3386 638.8688l11.433075 -0.03149414l0 10.740173l-11.433075 0.03149414z" fill-rule="evenodd"/></g></svg>