<svg version="1.1" viewBox="0.0 0.0 528.0 600.0" fill="none" stroke="none" stroke-linecap="square" stroke-miterlimit="10" xmlns:xlink="http://www.w3.org/1999/xlink" xmlns="http://www.w3.org/2000/svg"><clipPath id="p.0"><path d="m0 0l528.0 0l0 600.0l-528.0 0l0 -600.0z" clip-rule="nonzero"/></clipPath><g clip-path="url(#p.0)"><path fill="#000000" fill-opacity="0.0" d="m0 0l528.0 0l0 600.0l-528.0 0z" fill-rule="evenodd"/><path fill="#000000" fill-opacity="0.0" d="m167.50658 234.35196l0 130.89764" fill-rule="evenodd"/><path stroke="#ffffff" stroke-width="24.0" stroke-linejoin="round" stroke-linecap="butt" d="m167.50658 234.35196l0 130.89764" fill-rule="evenodd"/><path fill="#000000" fill-opacity="0.0" d="m360.40625 234.35196l0 130.89764" fill-rule="evenodd"/><path stroke="#ffffff" stroke-width="24.0" stroke-linejoin="round" stroke-linecap="butt" d="m360.40625 234.35196l0 130.89764" fill-rule="evenodd"/><path fill="#000000" fill-opacity="0.0" d="m167.89494 234.32608l96.44093 -43.622055" fill-rule="evenodd"/><path stroke="#ffffff" stroke-width="24.0" stroke-linejoin="round" stroke-linecap="butt" d="m167.89494 234.32608l96.44093 -43.622055" fill-rule="evenodd"/><path fill="#000000" fill-opacity="0.0" d="m360.40625 234.35196l-96.44095 -43.62204" fill-rule="evenodd"/><path stroke="#ffffff" stroke-width="24.0" stroke-linejoin="round" stroke-linecap="butt" d="m360.40625 234.35196l-96.44095 -43.62204" fill-rule="evenodd"/><path fill="#000000" fill-opacity="0.0" d="m167.50658 365.23557l96.44093 43.62204" fill-rule="evenodd"/><path stroke="#ffffff" stroke-width="24.0" stroke-linejoin="round" stroke-linecap="butt" d="m167.50658 365.23557l96.44093 43.62204" fill-rule="evenodd"/><path fill="#000000" fill-opacity="0.0" d="m360.40625 365.23557l-96.44095 43.62204" fill-rule="evenodd"/><path stroke="#ffffff" stroke-width="24.0" stroke-linejoin="round" stroke-linecap="butt" d="m360.40625 365.23557l-96.44095 43.62204" fill-rule="evenodd"/><path fill="#000000" fill-opacity="0.0" d="m167.50658 234.35196l96.44093 43.62204" fill-rule="evenodd"/><path stroke="#ffffff" stroke-width="24.0" stroke-linejoin="round" stroke-linecap="butt" d="m167.50658 234.35196l96.44093 43.62204" fill-rule="evenodd"/><path fill="#000000" fill-opacity="0.0" d="m360.40625 234.35196l-96.44095 43.62204" fill-rule="evenodd"/><path stroke="#ffffff" stroke-width="24.0" stroke-linejoin="round" stroke-linecap="butt" d="m360.40625 234.35196l-96.44095 43.62204" fill-rule="evenodd"/><path fill="#000000" fill-opacity="0.0" d="m263.95612 271.27725l0 137.6063" fill-rule="evenodd"/><path stroke="#ffffff" stroke-width="24.0" stroke-linejoin="round" stroke-linecap="butt" d="m263.95612 271.27725l0 137.6063" fill-rule="evenodd"/><path fill="#000000" fill-opacity="0.0" d="m167.54613 365.23557l-144.6614 87.275604" fill-rule="evenodd"/><path stroke="#ffffff" stroke-width="24.0" stroke-linejoin="round" stroke-linecap="butt" d="m167.54613 365.23557l-144.6614 87.275604" fill-rule="evenodd"/><path fill="#000000" fill-opacity="0.0" d="m263.95642 408.86343l0 169.63779" fill-rule="evenodd"/><path stroke="#ffffff" stroke-width="24.0" stroke-linejoin="round" stroke-linecap="butt" d="m263.95642 408.86343l0 169.63779" fill-rule="evenodd"/><path fill="#000000" fill-opacity="0.0" d="m22.910938 452.4913l240.9764 125.82675" fill-rule="evenodd"/><path stroke="#ffffff" stroke-width="24.0" stroke-linejoin="round" stroke-linecap="butt" d="m22.910938 452.4913l240.9764 125.82675" fill-rule="evenodd"/><path fill="#000000" fill-opacity="0.0" d="m505.04144 452.4913l-240.97638 125.82675" fill-rule="evenodd"/><path stroke="#ffffff" stroke-width="24.0" stroke-linejoin="round" stroke-linecap="butt" d="m505.04144 452.4913l-240.97638 125.82675" fill-rule="evenodd"/><path fill="#000000" fill-opacity="0.0" d="m360.40625 365.23557l144.6614 87.275604" fill-rule="evenodd"/><path stroke="#ffffff" stroke-width="24.0" stroke-linejoin="round" stroke-linecap="butt" d="m360.40625 365.23557l144.6614 87.275604" fill-rule="evenodd"/><path fill="#000000" fill-opacity="0.0" d="m22.831827 147.19643l0 305.19684" fill-rule="evenodd"/><path stroke="#ffffff" stroke-width="24.0" stroke-linejoin="round" stroke-linecap="butt" d="m22.831827 147.19643l0 305.19684" fill-rule="evenodd"/><path fill="#000000" fill-opacity="0.0" d="m167.54613 233.75536l-144.6614 -87.27559" fill-rule="evenodd"/><path stroke="#ffffff" stroke-width="24.0" stroke-linejoin="round" stroke-linecap="butt" d="m167.54613 233.75536l-144.6614 -87.27559" fill-rule="evenodd"/><path fill="#000000" fill-opacity="0.0" d="m503.46048 147.58878l-144.6614 87.27559" fill-rule="evenodd"/><path stroke="#ffffff" stroke-width="24.0" stroke-linejoin="round" stroke-linecap="butt" d="m503.46048 147.58878l-144.6614 87.27559" fill-rule="evenodd"/><path fill="#000000" fill-opacity="0.0" d="m505.11792 147.24892l0 305.19684" fill-rule="evenodd"/><path stroke="#ffffff" stroke-width="24.0" stroke-linejoin="round" stroke-linecap="butt" d="m505.11792 147.24892l0 305.19684" fill-rule="evenodd"/><path fill="#000000" fill-opacity="0.0" d="m263.87732 21.251019l-240.9764 125.82677" fill-rule="evenodd"/><path stroke="#ffffff" stroke-width="24.0" stroke-linejoin="round" stroke-linecap="butt" d="m263.87732 21.251019l-240.9764 125.82677" fill-rule="evenodd"/><path fill="#000000" fill-opacity="0.0" d="m264.15295 21.251019l240.97638 125.82677" fill-rule="evenodd"/><path stroke="#ffffff" stroke-width="24.0" stroke-linejoin="round" stroke-linecap="butt" d="m264.15295 21.251019l240.97638 125.82677" fill-rule="evenodd"/><path fill="#000000" fill-opacity="0.0" d="m23.738605 147.02446l240.9764 125.82677" fill-rule="evenodd"/><path stroke="#ffffff" stroke-width="24.0" stroke-linejoin="round" stroke-linecap="butt" d="m23.738605 147.02446l240.9764 125.82677" fill-rule="evenodd"/><path fill="#000000" fill-opacity="0.0" d="m504.21088 147.02446l-240.97638 125.82677" fill-rule="evenodd"/><path stroke="#ffffff" stroke-width="24.0" stroke-linejoin="round" stroke-linecap="butt" d="m504.21088 147.02446l-240.97638 125.82677" fill-rule="evenodd"/><path fill="#000000" fill-opacity="0.0" d="m264.33868 21.053946l0 169.6378" fill-rule="evenodd"/><path stroke="#ffffff" stroke-width="24.0" stroke-linejoin="round" stroke-linecap="butt" d="m264.33868 21.053946l0 169.6378" fill-rule="evenodd"/><path fill="#ffffff" d="m510.68976 136.47847l6.425232 10.8346405l-11.181122 6.6141815l-6.4252014 -10.834656z" fill-rule="evenodd"/><path fill="#ffffff" d="m17.310833 136.41597l-6.4251966 10.8346405l11.181104 6.6141815l6.4251957 -10.834656z" fill-rule="evenodd"/><path fill="#ffffff" d="m510.68976 463.05954l6.425232 -10.834625l-11.181122 -6.6141663l-6.4252014 10.834625z" fill-rule="evenodd"/><path fill="#ffffff" d="m17.310833 463.12204l-6.4251966 -10.834625l11.181104 -6.6141663l6.4251957 10.834625z" fill-rule="evenodd"/><path fill="#ffffff" d="m258.3189 10.645674l11.433075 -0.031496048l0 10.740158l-11.433075 0.031496048z" fill-rule="evenodd"/><path fill="#ffffff" d="m258.3189 578.6457l11.433075 -0.03149414l0 10.740112l-11.433075 0.03149414z" fill-rule="evenodd"/></g></svg>