<svg version="1.1" viewBox="0.0 0.0 2928.0 720.0" fill="none" stroke="none" stroke-linecap="square" stroke-miterlimit="10" xmlns:xlink="http://www.w3.org/1999/xlink" xmlns="http://www.w3.org/2000/svg"><clipPath id="p.0"><path d="m0 0l2928.0 0l0 720.0l-2928.0 0l0 -720.0z" clip-rule="nonzero"/></clipPath><g clip-path="url(#p.0)"><path fill="#000000" fill-opacity="0.0" d="m0 0l2928.0 0l0 720.0l-2928.0 0z" fill-rule="evenodd"/><defs><linearGradient id="p.1" gradientUnits="userSpaceOnUse" gradientTransform="matrix(54.07533016922103 0.0 0.0 54.07533016922103 0.0 0.0)" spreadMethod="pad" x1="1.3183314505503915E-6" y1="10.3458568794621" x2="54.07533148755248" y2="10.3458568794621"><stop offset="0.0" stop-color="#9c27b0"/><stop offset="1.0" stop-color="#3f51b5"/></linearGradient></defs><path fill="url(#p.1)" d="m7.128921E-5 164.81499l0 59.66623l118.40935 0l0 330.66864l72.96909 0l0 -330.66864l117.879944 0l0 -59.66623z" fill-rule="evenodd"/><defs><linearGradient id="p.2" gradientUnits="userSpaceOnUse" gradientTransform="matrix(54.07533016922103 0.0 0.0 54.07533016922103 0.0 0.0)" spreadMethod="pad" x1="1.3183314505503915E-6" y1="10.3458568794621" x2="54.07533148755248" y2="10.3458568794621"><stop offset="0.0" stop-color="#9c27b0"/><stop offset="1.0" stop-color="#3f51b5"/></linearGradient></defs><path fill="url(#p.2)" d="m355.6417 164.81499l0 390.33484l247.142 0l0 -57.996643l-173.73172 0l0 -110.457184l136.85013 0l0 -55.887665l-136.85013 0l0 -108.26036l173.73172 0l0 -57.733z" fill-rule="evenodd"/><defs><linearGradient id="p.3" gradientUnits="userSpaceOnUse" gradientTransform="matrix(54.07533016922103 0.0 0.0 54.07533016922103 0.0 0.0)" spreadMethod="pad" x1="1.3183314505503915E-6" y1="10.3458568794621" x2="54.07533148755248" y2="10.3458568794621"><stop offset="0.0" stop-color="#9c27b0"/><stop offset="1.0" stop-color="#3f51b5"/></linearGradient></defs><path fill="url(#p.3)" d="m780.0843 160.50919c-20.411377 0 -38.587463 3.1634521 -54.52832 9.490356c-15.882019 6.268326 -29.293518 14.616318 -40.234497 25.043991c-10.940918 10.427673 -19.264282 22.407791 -24.970032 35.940323c-5.6469727 13.4739685 -8.470459 27.328705 -8.470459 41.56424c0 17.809082 2.5587769 32.776886 7.6763306 44.903442c5.1763916 12.126587 11.999756 22.261322 20.470154 30.404297c8.529297 8.084381 18.205566 14.64563 29.02887 19.683716c10.823303 5.038086 21.82312 9.373169 32.99933 13.00531c11.235046 3.5735168 22.264221 6.883423 33.087524 9.929718c10.882141 3.0462952 20.55841 6.7955627 29.028809 11.247833c8.529236 4.3936768 15.352661 9.841827 20.470215 16.344482c5.1763306 6.444092 7.7645264 14.792084 7.7645264 25.044006c0 18.336273 -5.7057495 32.425385 -17.11731 42.267242c-11.352661 9.783264 -27.440613 14.674896 -48.263733 14.674896c-13.529114 0 -25.146545 -1.8453369 -34.852234 -5.5360413c-9.64679 -3.6907043 -18.028992 -7.762207 -25.146545 -12.214447c-7.1174927 -4.5108643 -13.323242 -8.611603 -18.617249 -12.302307c-5.2351685 -3.6907043 -10.088013 -5.5360413 -14.558533 -5.5360413c-3.470459 0 -6.6174927 0.84942627 -9.440979 2.5483398c-2.7645874 1.6989136 -5.1469116 3.8078613 -7.1469116 6.3269043l-21.08783 34.797974c7.588135 7.7914124 16.205627 14.850616 25.852417 21.17752c9.646851 6.2683716 20.029053 11.657959 31.146423 16.168762c11.117432 4.4522705 22.734863 7.8793335 34.852234 10.28125c12.117432 2.4604492 24.411316 3.6906738 36.88159 3.6906738c21.646667 0 40.88153 -3.2806396 57.704712 -9.841858c16.823181 -6.5612183 31.058228 -15.55365 42.705017 -26.977173c11.646851 -11.4236145 20.499634 -24.838959 26.558289 -40.246155c6.058716 -15.407227 9.088074 -31.92746 9.088074 -49.56076c0 -16.168762 -2.5881958 -29.906342 -7.7645874 -41.212738c-5.1174927 -11.36499 -11.940918 -20.943237 -20.470154 -28.73471c-8.470398 -7.8500366 -18.146667 -14.352692 -29.028809 -19.507935c-10.823303 -5.1552734 -21.881897 -9.666107 -33.17578 -13.532562c-11.293884 -3.8664246 -22.35254 -7.498535 -33.17578 -10.896332c-10.823303 -3.3977966 -20.499573 -7.264221 -29.02887 -11.599335c-8.470398 -4.335083 -15.293762 -9.54892 -20.470154 -15.64151c-5.1175537 -6.1511536 -7.6763306 -13.796143 -7.6763306 -22.935028c0 -7.2056274 1.2646484 -13.825439 3.7940674 -19.859436c2.529358 -6.0339966 6.352783 -11.218552 11.470337 -15.55365c5.1763916 -4.335083 11.499756 -7.7035675 18.970215 -10.105469c7.529297 -2.4604645 16.3526 -3.690689 26.470032 -3.690689c11.235107 0 20.940796 1.4059753 29.117065 4.2179413c8.235168 2.8119507 15.411499 5.916809 21.528992 9.314606c6.1763306 3.3977814 11.529114 6.502655 16.058472 9.314606c4.529358 2.8119507 8.588074 4.2179413 12.1762085 4.2179413c3.5881958 0 6.7057495 -0.8201599 9.352783 -2.4604645c2.6469727 -1.6403198 4.94104 -4.422989 6.882202 -8.348007l17.911377 -34.27072c-13.705627 -13.00531 -30.322937 -23.081482 -49.85193 -30.228546c-19.528992 -7.2056427 -40.85211 -10.808456 -63.96924 -10.808456z" fill-rule="evenodd"/><defs><linearGradient id="p.4" gradientUnits="userSpaceOnUse" gradientTransform="matrix(54.07533016922103 0.0 0.0 54.07533016922103 0.0 0.0)" spreadMethod="pad" x1="1.3183314505503915E-6" y1="10.3458568794621" x2="54.07533148755248" y2="10.3458568794621"><stop offset="0.0" stop-color="#9c27b0"/><stop offset="1.0" stop-color="#3f51b5"/></linearGradient></defs><path fill="url(#p.4)" d="m1070.925 160.50919c-20.411377 0 -38.587524 3.1634521 -54.52832 9.490356c-15.882019 6.268326 -29.293518 14.616318 -40.234436 25.043991c-10.940979 10.427673 -19.264343 22.407791 -24.970093 35.940323c-5.6469727 13.4739685 -8.470398 27.328705 -8.470398 41.56424c0 17.809082 2.5587158 32.776886 7.6762695 44.903442c5.1763916 12.126587 11.999756 22.261322 20.470215 30.404297c8.529175 8.084381 18.205444 14.64563 29.028809 19.683716c10.823303 5.038086 21.82306 9.373169 32.999268 13.00531c11.235107 3.5735168 22.264282 6.883423 33.087646 9.929718c10.88208 3.0462952 20.55835 6.7955627 29.028809 11.247833c8.529175 4.3936768 15.352539 9.841827 20.470093 16.344482c5.1763916 6.444092 7.7646484 14.792084 7.7646484 25.044006c0 18.336273 -5.7058105 32.425385 -17.11731 42.267242c-11.352783 9.783264 -27.440674 14.674896 -48.263794 14.674896c-13.529175 0 -25.146484 -1.8453369 -34.852173 -5.5360413c-9.646912 -3.6907043 -18.029114 -7.762207 -25.146545 -12.214447c-7.1174927 -4.5108643 -13.323303 -8.611603 -18.61731 -12.302307c-5.2351685 -3.6907043 -10.088013 -5.5360413 -14.558533 -5.5360413c-3.47052 0 -6.6174927 0.84942627 -9.440979 2.5483398c-2.7646484 1.6989136 -5.1469727 3.8078613 -7.1469116 6.3269043l-21.087769 34.797974c7.5880737 7.7914124 16.205505 14.850616 25.852417 21.17752c9.646851 6.2683716 20.028992 11.657959 31.146423 16.168762c11.117371 4.4522705 22.734802 7.8793335 34.852234 10.28125c12.117432 2.4604492 24.411255 3.6906738 36.88159 3.6906738c21.646606 0 40.88147 -3.2806396 57.704712 -9.841858c16.82312 -6.5612183 31.058105 -15.55365 42.704956 -26.977173c11.646851 -11.4236145 20.499634 -24.838959 26.55835 -40.246155c6.058716 -15.407227 9.088013 -31.92746 9.088013 -49.56076c0 -16.168762 -2.5881348 -29.906342 -7.7645264 -41.212738c-5.1175537 -11.36499 -11.940918 -20.943237 -20.470215 -28.73471c-8.470459 -7.8500366 -18.146729 -14.352692 -29.028809 -19.507935c-10.823364 -5.1552734 -21.881958 -9.666107 -33.17578 -13.532562c-11.293945 -3.8664246 -22.35254 -7.498535 -33.17578 -10.896332c-10.823364 -3.3977966 -20.499512 -7.264221 -29.028809 -11.599335c-8.470459 -4.335083 -15.293823 -9.54892 -20.470215 -15.64151c-5.1175537 -6.1511536 -7.6762695 -13.796143 -7.6762695 -22.935028c0 -7.2056274 1.2646484 -13.825439 3.7940063 -19.859436c2.529358 -6.0339966 6.352844 -11.218552 11.470398 -15.55365c5.1762695 -4.335083 11.499756 -7.7035675 18.970215 -10.105469c7.529175 -2.4604645 16.35254 -3.690689 26.46997 -3.690689c11.235107 0 20.940796 1.4059753 29.117065 4.2179413c8.235107 2.8119507 15.411499 5.916809 21.52893 9.314606c6.1763916 3.3977814 11.529297 6.502655 16.058594 9.314606c4.529297 2.8119507 8.588013 4.2179413 12.176147 4.2179413c3.5882568 0 6.7058105 -0.8201599 9.352783 -2.4604645c2.6469727 -1.6403198 4.94104 -4.422989 6.882202 -8.348007l17.911377 -34.27072c-13.705566 -13.00531 -30.322876 -23.081482 -49.85193 -30.228546c-19.52893 -7.2056427 -40.85205 -10.808456 -63.96924 -10.808456z" fill-rule="evenodd"/><defs><linearGradient id="p.5" gradientUnits="userSpaceOnUse" gradientTransform="matrix(54.07533016922103 0.0 0.0 54.07533016922103 0.0 0.0)" spreadMethod="pad" x1="1.3183314505503915E-6" y1="10.3458568794621" x2="54.07533148755248" y2="10.3458568794621"><stop offset="0.0" stop-color="#9c27b0"/><stop offset="1.0" stop-color="#3f51b5"/></linearGradient></defs><path fill="url(#p.5)" d="m1247.6799 164.81499l0 390.33484l247.14197 0l0 -57.996643l-173.73169 0l0 -110.457184l136.8501 0l0 -55.887665l-136.8501 0l0 -108.26036l173.73169 0l0 -57.733z" fill-rule="evenodd"/><defs><linearGradient id="p.6" gradientUnits="userSpaceOnUse" gradientTransform="matrix(54.07533016922103 0.0 0.0 54.07533016922103 0.0 0.0)" spreadMethod="pad" x1="1.3183314505503915E-6" y1="10.3458568794621" x2="54.07533148755248" y2="10.3458568794621"><stop offset="0.0" stop-color="#9c27b0"/><stop offset="1.0" stop-color="#3f51b5"/></linearGradient></defs><path fill="url(#p.6)" d="m1679.9752 220.96626c26.940674 0 46.940186 5.301712 59.99878 15.905136c13.117432 10.603424 19.676147 25.805573 19.676147 45.606445c0 9.900421 -1.6470947 19.01001 -4.941162 27.328705c-3.2352295 8.260132 -8.146851 15.407166 -14.734985 21.441162c-6.588135 6.0339966 -14.999634 10.749908 -25.234741 14.147675c-10.17627 3.3977966 -22.117188 5.0966797 -35.822754 5.0966797l-45.528564 0l0 -129.5258zm-119.5564 -56.151276l0 390.33484l72.96912 0l0 -152.5487l31.146484 0c7.2351074 0 12.705566 0.99591064 16.411377 2.9877014c3.7058105 1.9917908 7.088135 5.3309937 10.146851 10.017609l82.41016 124.95636c3.0587158 4.6865845 6.7939453 8.289429 11.205566 10.808472c4.470581 2.518982 9.852783 3.7785645 16.146729 3.7785645l65.557495 0l-98.1156 -144.11282c-6.6469727 -9.72467 -14.588013 -17.19394 -23.82312 -22.407806c13.764526 -4.335083 25.999512 -10.105469 36.7052 -17.311096c10.764526 -7.205658 19.793701 -15.582916 27.087646 -25.131866c7.352783 -9.54895 12.970337 -20.152374 16.852661 -31.810272c3.8822021 -11.716492 5.8233643 -24.135956 5.8233643 -37.258423c0 -16.578857 -2.8529053 -31.751709 -8.558594 -45.51857c-5.7058105 -13.7668915 -14.646851 -25.60054 -26.822998 -35.50096c-12.17627 -9.900436 -27.79358 -17.574738 -46.85205 -23.022903c-19.05835 -5.5067444 -41.969727 -8.260132 -68.73389 -8.260132z" fill-rule="evenodd"/><defs><linearGradient id="p.7" gradientUnits="userSpaceOnUse" gradientTransform="matrix(54.07533016922103 0.0 0.0 54.07533016922103 0.0 0.0)" spreadMethod="pad" x1="1.3183314505503915E-6" y1="10.3458568794621" x2="54.07533148755248" y2="10.3458568794621"><stop offset="0.0" stop-color="#9c27b0"/><stop offset="1.0" stop-color="#3f51b5"/></linearGradient></defs><path fill="url(#p.7)" d="m2066.2021 232.03835c2.5292969 9.13887 5.088135 17.633331 7.6762695 25.483353c2.6472168 7.850067 5.058838 14.645599 7.2353516 20.386719l47.73413 129.87726l-124.9386 0l47.64612 -129.35004c2.3527832 -5.916809 4.7351074 -12.829559 7.1469727 -20.73819c2.470459 -7.967209 4.970459 -16.520233 7.499756 -25.659103zm-37.14624 -67.22336l-153.9674 390.33484l56.645874 0c6.1762695 0 11.38208 -1.6989136 15.61731 -5.0966797c4.2352295 -3.4563599 7.088135 -7.2349854 8.558594 -11.335693l29.29358 -79.70145l162.34961 0l29.293457 79.70145c1.7646484 4.6279907 4.6765137 8.523743 8.735107 11.687195c4.117676 3.1634521 9.323486 4.745178 15.617432 4.745178l56.381104 0l-153.96729 -390.33484z" fill-rule="evenodd"/><defs><linearGradient id="p.8" gradientUnits="userSpaceOnUse" gradientTransform="matrix(54.07533016922103 0.0 0.0 54.07533016922103 0.0 0.0)" spreadMethod="pad" x1="1.3183314505503915E-6" y1="10.3458568794621" x2="54.07533148755248" y2="10.3458568794621"><stop offset="0.0" stop-color="#9c27b0"/><stop offset="1.0" stop-color="#3f51b5"/></linearGradient></defs><path fill="url(#p.8)" d="m2412.0994 160.50919c-20.411377 0 -38.587402 3.1634521 -54.52832 9.490356c-15.88208 6.268326 -29.293457 14.616318 -40.234375 25.043991c-10.940918 10.427673 -19.264404 22.407791 -24.970215 35.940323c-5.6469727 13.4739685 -8.470459 27.328705 -8.470459 41.56424c0 17.809082 2.558838 32.776886 7.6765137 44.903442c5.1762695 12.126587 11.999756 22.261322 20.46997 30.404297c8.529297 8.084381 18.205566 14.64563 29.029053 19.683716c10.823242 5.038086 21.822998 9.373169 32.999268 13.00531c11.234863 3.5735168 22.26416 6.883423 33.087402 9.929718c10.88208 3.0462952 20.558594 6.7955627 29.028809 11.247833c8.529297 4.3936768 15.352783 9.841827 20.470215 16.344482c5.1765137 6.444092 7.7646484 14.792084 7.7646484 25.044006c0 18.336273 -5.7058105 32.425385 -17.117432 42.267242c-11.352539 9.783264 -27.44043 14.674896 -48.26367 14.674896c-13.529053 0 -25.146484 -1.8453369 -34.852295 -5.5360413c-9.6467285 -3.6907043 -18.028809 -7.762207 -25.146484 -12.214447c-7.1174316 -4.5108643 -13.323242 -8.611603 -18.617188 -12.302307c-5.2351074 -3.6907043 -10.088135 -5.5360413 -14.558594 -5.5360413c-3.470459 0 -6.6174316 0.84942627 -9.440918 2.5483398c-2.7646484 1.6989136 -5.1469727 3.8078613 -7.1469727 6.3269043l-21.08789 34.797974c7.588135 7.7914124 16.20581 14.850616 25.85254 21.17752c9.6467285 6.2683716 20.029053 11.657959 31.146484 16.168762c11.117432 4.4522705 22.734863 7.8793335 34.85205 10.28125c12.117432 2.4604492 24.411377 3.6906738 36.88159 3.6906738c21.646729 0 40.88159 -3.2806396 57.704834 -9.841858c16.823242 -6.5612183 31.058105 -15.55365 42.70508 -26.977173c11.6467285 -11.4236145 20.499512 -24.838959 26.558105 -40.246155c6.058838 -15.407227 9.088135 -31.92746 9.088135 -49.56076c0 -16.168762 -2.5881348 -29.906342 -7.7646484 -41.212738c-5.1174316 -11.36499 -11.940674 -20.943237 -20.46997 -28.73471c-8.470459 -7.8500366 -18.146729 -14.352692 -29.028809 -19.507935c-10.823486 -5.1552734 -21.88208 -9.666107 -33.17578 -13.532562c-11.293945 -3.8664246 -22.35254 -7.498535 -33.176025 -10.896332c-10.823242 -3.3977966 -20.499512 -7.264221 -29.028809 -11.599335c-8.470215 -4.335083 -15.293701 -9.54892 -20.46997 -15.64151c-5.117676 -6.1511536 -7.6765137 -13.796143 -7.6765137 -22.935028c0 -7.2056274 1.2646484 -13.825439 3.7941895 -19.859436c2.5292969 -6.0339966 6.352783 -11.218552 11.470215 -15.55365c5.1765137 -4.335083 11.5 -7.7035675 18.970215 -10.105469c7.529297 -2.4604645 16.352783 -3.690689 26.470215 -3.690689c11.234863 0 20.940674 1.4059753 29.116943 4.2179413c8.235107 2.8119507 15.411377 5.916809 21.529053 9.314606c6.1762695 3.3977814 11.529053 6.502655 16.05835 9.314606c4.529297 2.8119507 8.588135 4.2179413 12.17627 4.2179413c3.5881348 0 6.7058105 -0.8201599 9.352783 -2.4604645c2.6469727 -1.6403198 4.941162 -4.422989 6.882324 -8.348007l17.911377 -34.27072c-13.705566 -13.00531 -30.322998 -23.081482 -49.85205 -30.228546c-19.529053 -7.2056427 -40.85205 -10.808456 -63.96924 -10.808456z" fill-rule="evenodd"/><defs><linearGradient id="p.9" gradientUnits="userSpaceOnUse" gradientTransform="matrix(54.07533016922103 0.0 0.0 54.07533016922103 0.0 0.0)" spreadMethod="pad" x1="1.3183314505503915E-6" y1="10.3458568794621" x2="54.07533148755248" y2="10.3458568794621"><stop offset="0.0" stop-color="#9c27b0"/><stop offset="1.0" stop-color="#3f51b5"/></linearGradient></defs><path fill="url(#p.9)" d="m2591.2366 164.55138l0 390.59845l72.968994 0l0 -171.70517l23.028809 0c8.294189 0 14.705811 1.0545044 19.235107 3.1634521c4.529297 2.0503845 8.587891 5.4188538 12.176025 10.105469l110.82129 144.11282c2.941162 4.6865845 6.529297 8.260132 10.764648 10.720581c4.2351074 2.4019165 10.67627 3.6028442 19.322998 3.6028442l64.586914 0l-136.14429 -182.77725c-4.470459 -6.09256 -9.117432 -11.101349 -13.940918 -15.026398c-4.7644043 -3.9835815 -10.1467285 -7.0591736 -16.146729 -9.226715c4.3530273 -2.167572 8.411621 -4.9502563 12.17627 -8.348022c3.8234863 -3.4563599 7.823242 -7.7035522 11.999756 -12.741669l131.99731 -162.2148l-62.9104 0c-7.588135 0 -13.88208 1.1423645 -18.88208 3.4270782c-4.940918 2.2261353 -9.67627 6.2097473 -14.205566 11.950821l-108.08594 136.29207c-3.2939453 4.1593323 -7.2058105 7.2056274 -11.735107 9.138855c-4.470459 1.8746338 -10.1467285 2.8119507 -17.029053 2.8119507l-17.029053 0l0 -163.88438z" fill-rule="evenodd"/><path stroke="#ffffff" stroke-width="8.0" stroke-linejoin="round" stroke-linecap="butt" d="m7.128921E-5 164.81499l0 59.66623l118.40935 0l0 330.66864l72.96909 0l0 -330.66864l117.879944 0l0 -59.66623z" fill-rule="evenodd"/><path stroke="#ffffff" stroke-width="8.0" stroke-linejoin="round" stroke-linecap="butt" d="m355.6417 164.81499l0 390.33484l247.142 0l0 -57.996643l-173.73172 0l0 -110.457184l136.85013 0l0 -55.887665l-136.85013 0l0 -108.26036l173.73172 0l0 -57.733z" fill-rule="evenodd"/><path stroke="#ffffff" stroke-width="8.0" stroke-linejoin="round" stroke-linecap="butt" d="m780.0843 160.50919c-20.411377 0 -38.587463 3.1634521 -54.52832 9.490356c-15.882019 6.268326 -29.293518 14.616318 -40.234497 25.043991c-10.940918 10.427673 -19.264282 22.407791 -24.970032 35.940323c-5.6469727 13.4739685 -8.470459 27.328705 -8.470459 41.56424c0 17.809082 2.5587769 32.776886 7.6763306 44.903442c5.1763916 12.126587 11.999756 22.261322 20.470154 30.404297c8.529297 8.084381 18.205566 14.64563 29.02887 19.683716c10.823303 5.038086 21.82312 9.373169 32.99933 13.00531c11.235046 3.5735168 22.264221 6.883423 33.087524 9.929718c10.882141 3.0462952 20.55841 6.7955627 29.028809 11.247833c8.529236 4.3936768 15.352661 9.841827 20.470215 16.344482c5.1763306 6.444092 7.7645264 14.792084 7.7645264 25.044006c0 18.336273 -5.7057495 32.425385 -17.11731 42.267242c-11.352661 9.783264 -27.440613 14.674896 -48.263733 14.674896c-13.529114 0 -25.146545 -1.8453369 -34.852234 -5.5360413c-9.64679 -3.6907043 -18.028992 -7.762207 -25.146545 -12.214447c-7.1174927 -4.5108643 -13.323242 -8.611603 -18.617249 -12.302307c-5.2351685 -3.6907043 -10.088013 -5.5360413 -14.558533 -5.5360413c-3.470459 0 -6.6174927 0.84942627 -9.440979 2.5483398c-2.7645874 1.6989136 -5.1469116 3.8078613 -7.1469116 6.3269043l-21.08783 34.797974c7.588135 7.7914124 16.205627 14.850616 25.852417 21.17752c9.646851 6.2683716 20.029053 11.657959 31.146423 16.168762c11.117432 4.4522705 22.734863 7.8793335 34.852234 10.28125c12.117432 2.4604492 24.411316 3.6906738 36.88159 3.6906738c21.646667 0 40.88153 -3.2806396 57.704712 -9.841858c16.823181 -6.5612183 31.058228 -15.55365 42.705017 -26.977173c11.646851 -11.4236145 20.499634 -24.838959 26.558289 -40.246155c6.058716 -15.407227 9.088074 -31.92746 9.088074 -49.56076c0 -16.168762 -2.5881958 -29.906342 -7.7645874 -41.212738c-5.1174927 -11.36499 -11.940918 -20.943237 -20.470154 -28.73471c-8.470398 -7.8500366 -18.146667 -14.352692 -29.028809 -19.507935c-10.823303 -5.1552734 -21.881897 -9.666107 -33.17578 -13.532562c-11.293884 -3.8664246 -22.35254 -7.498535 -33.17578 -10.896332c-10.823303 -3.3977966 -20.499573 -7.264221 -29.02887 -11.599335c-8.470398 -4.335083 -15.293762 -9.54892 -20.470154 -15.64151c-5.1175537 -6.1511536 -7.6763306 -13.796143 -7.6763306 -22.935028c0 -7.2056274 1.2646484 -13.825439 3.7940674 -19.859436c2.529358 -6.0339966 6.352783 -11.218552 11.470337 -15.55365c5.1763916 -4.335083 11.499756 -7.7035675 18.970215 -10.105469c7.529297 -2.4604645 16.3526 -3.690689 26.470032 -3.690689c11.235107 0 20.940796 1.4059753 29.117065 4.2179413c8.235168 2.8119507 15.411499 5.916809 21.528992 9.314606c6.1763306 3.3977814 11.529114 6.502655 16.058472 9.314606c4.529358 2.8119507 8.588074 4.2179413 12.1762085 4.2179413c3.5881958 0 6.7057495 -0.8201599 9.352783 -2.4604645c2.6469727 -1.6403198 4.94104 -4.422989 6.882202 -8.348007l17.911377 -34.27072c-13.705627 -13.00531 -30.322937 -23.081482 -49.85193 -30.228546c-19.528992 -7.2056427 -40.85211 -10.808456 -63.96924 -10.808456z" fill-rule="evenodd"/><path stroke="#ffffff" stroke-width="8.0" stroke-linejoin="round" stroke-linecap="butt" d="m1070.925 160.50919c-20.411377 0 -38.587524 3.1634521 -54.52832 9.490356c-15.882019 6.268326 -29.293518 14.616318 -40.234436 25.043991c-10.940979 10.427673 -19.264343 22.407791 -24.970093 35.940323c-5.6469727 13.4739685 -8.470398 27.328705 -8.470398 41.56424c0 17.809082 2.5587158 32.776886 7.6762695 44.903442c5.1763916 12.126587 11.999756 22.261322 20.470215 30.404297c8.529175 8.084381 18.205444 14.64563 29.028809 19.683716c10.823303 5.038086 21.82306 9.373169 32.999268 13.00531c11.235107 3.5735168 22.264282 6.883423 33.087646 9.929718c10.88208 3.0462952 20.55835 6.7955627 29.028809 11.247833c8.529175 4.3936768 15.352539 9.841827 20.470093 16.344482c5.1763916 6.444092 7.7646484 14.792084 7.7646484 25.044006c0 18.336273 -5.7058105 32.425385 -17.11731 42.267242c-11.352783 9.783264 -27.440674 14.674896 -48.263794 14.674896c-13.529175 0 -25.146484 -1.8453369 -34.852173 -5.5360413c-9.646912 -3.6907043 -18.029114 -7.762207 -25.146545 -12.214447c-7.1174927 -4.5108643 -13.323303 -8.611603 -18.61731 -12.302307c-5.2351685 -3.6907043 -10.088013 -5.5360413 -14.558533 -5.5360413c-3.47052 0 -6.6174927 0.84942627 -9.440979 2.5483398c-2.7646484 1.6989136 -5.1469727 3.8078613 -7.1469116 6.3269043l-21.087769 34.797974c7.5880737 7.7914124 16.205505 14.850616 25.852417 21.17752c9.646851 6.2683716 20.028992 11.657959 31.146423 16.168762c11.117371 4.4522705 22.734802 7.8793335 34.852234 10.28125c12.117432 2.4604492 24.411255 3.6906738 36.88159 3.6906738c21.646606 0 40.88147 -3.2806396 57.704712 -9.841858c16.82312 -6.5612183 31.058105 -15.55365 42.704956 -26.977173c11.646851 -11.4236145 20.499634 -24.838959 26.55835 -40.246155c6.058716 -15.407227 9.088013 -31.92746 9.088013 -49.56076c0 -16.168762 -2.5881348 -29.906342 -7.7645264 -41.212738c-5.1175537 -11.36499 -11.940918 -20.943237 -20.470215 -28.73471c-8.470459 -7.8500366 -18.146729 -14.352692 -29.028809 -19.507935c-10.823364 -5.1552734 -21.881958 -9.666107 -33.17578 -13.532562c-11.293945 -3.8664246 -22.35254 -7.498535 -33.17578 -10.896332c-10.823364 -3.3977966 -20.499512 -7.264221 -29.028809 -11.599335c-8.470459 -4.335083 -15.293823 -9.54892 -20.470215 -15.64151c-5.1175537 -6.1511536 -7.6762695 -13.796143 -7.6762695 -22.935028c0 -7.2056274 1.2646484 -13.825439 3.7940063 -19.859436c2.529358 -6.0339966 6.352844 -11.218552 11.470398 -15.55365c5.1762695 -4.335083 11.499756 -7.7035675 18.970215 -10.105469c7.529175 -2.4604645 16.35254 -3.690689 26.46997 -3.690689c11.235107 0 20.940796 1.4059753 29.117065 4.2179413c8.235107 2.8119507 15.411499 5.916809 21.52893 9.314606c6.1763916 3.3977814 11.529297 6.502655 16.058594 9.314606c4.529297 2.8119507 8.588013 4.2179413 12.176147 4.2179413c3.5882568 0 6.7058105 -0.8201599 9.352783 -2.4604645c2.6469727 -1.6403198 4.94104 -4.422989 6.882202 -8.348007l17.911377 -34.27072c-13.705566 -13.00531 -30.322876 -23.081482 -49.85193 -30.228546c-19.52893 -7.2056427 -40.85205 -10.808456 -63.96924 -10.808456z" fill-rule="evenodd"/><path stroke="#ffffff" stroke-width="8.0" stroke-linejoin="round" stroke-linecap="butt" d="m1247.6799 164.81499l0 390.33484l247.14197 0l0 -57.996643l-173.73169 0l0 -110.457184l136.8501 0l0 -55.887665l-136.8501 0l0 -108.26036l173.73169 0l0 -57.733z" fill-rule="evenodd"/><path stroke="#ffffff" stroke-width="8.0" stroke-linejoin="round" stroke-linecap="butt" d="m1679.9752 220.96626c26.940674 0 46.940186 5.301712 59.99878 15.905136c13.117432 10.603424 19.676147 25.805573 19.676147 45.606445c0 9.900421 -1.6470947 19.01001 -4.941162 27.328705c-3.2352295 8.260132 -8.146851 15.407166 -14.734985 21.441162c-6.588135 6.0339966 -14.999634 10.749908 -25.234741 14.147675c-10.17627 3.3977966 -22.117188 5.0966797 -35.822754 5.0966797l-45.528564 0l0 -129.5258zm-119.5564 -56.151276l0 390.33484l72.96912 0l0 -152.5487l31.146484 0c7.2351074 0 12.705566 0.99591064 16.411377 2.9877014c3.7058105 1.9917908 7.088135 5.3309937 10.146851 10.017609l82.41016 124.95636c3.0587158 4.6865845 6.7939453 8.289429 11.205566 10.808472c4.470581 2.518982 9.852783 3.7785645 16.146729 3.7785645l65.557495 0l-98.1156 -144.11282c-6.6469727 -9.72467 -14.588013 -17.19394 -23.82312 -22.407806c13.764526 -4.335083 25.999512 -10.105469 36.7052 -17.311096c10.764526 -7.205658 19.793701 -15.582916 27.087646 -25.131866c7.352783 -9.54895 12.970337 -20.152374 16.852661 -31.810272c3.8822021 -11.716492 5.8233643 -24.135956 5.8233643 -37.258423c0 -16.578857 -2.8529053 -31.751709 -8.558594 -45.51857c-5.7058105 -13.7668915 -14.646851 -25.60054 -26.822998 -35.50096c-12.17627 -9.900436 -27.79358 -17.574738 -46.85205 -23.022903c-19.05835 -5.5067444 -41.969727 -8.260132 -68.73389 -8.260132z" fill-rule="evenodd"/><path stroke="#ffffff" stroke-width="8.0" stroke-linejoin="round" stroke-linecap="butt" d="m2066.2021 232.03835c2.5292969 9.13887 5.088135 17.633331 7.6762695 25.483353c2.6472168 7.850067 5.058838 14.645599 7.2353516 20.386719l47.73413 129.87726l-124.9386 0l47.64612 -129.35004c2.3527832 -5.916809 4.7351074 -12.829559 7.1469727 -20.73819c2.470459 -7.967209 4.970459 -16.520233 7.499756 -25.659103zm-37.14624 -67.22336l-153.9674 390.33484l56.645874 0c6.1762695 0 11.38208 -1.6989136 15.61731 -5.0966797c4.2352295 -3.4563599 7.088135 -7.2349854 8.558594 -11.335693l29.29358 -79.70145l162.34961 0l29.293457 79.70145c1.7646484 4.6279907 4.6765137 8.523743 8.735107 11.687195c4.117676 3.1634521 9.323486 4.745178 15.617432 4.745178l56.381104 0l-153.96729 -390.33484z" fill-rule="evenodd"/><path stroke="#ffffff" stroke-width="8.0" stroke-linejoin="round" stroke-linecap="butt" d="m2412.0994 160.50919c-20.411377 0 -38.587402 3.1634521 -54.52832 9.490356c-15.88208 6.268326 -29.293457 14.616318 -40.234375 25.043991c-10.940918 10.427673 -19.264404 22.407791 -24.970215 35.940323c-5.6469727 13.4739685 -8.470459 27.328705 -8.470459 41.56424c0 17.809082 2.558838 32.776886 7.6765137 44.903442c5.1762695 12.126587 11.999756 22.261322 20.46997 30.404297c8.529297 8.084381 18.205566 14.64563 29.029053 19.683716c10.823242 5.038086 21.822998 9.373169 32.999268 13.00531c11.234863 3.5735168 22.26416 6.883423 33.087402 9.929718c10.88208 3.0462952 20.558594 6.7955627 29.028809 11.247833c8.529297 4.3936768 15.352783 9.841827 20.470215 16.344482c5.1765137 6.444092 7.7646484 14.792084 7.7646484 25.044006c0 18.336273 -5.7058105 32.425385 -17.117432 42.267242c-11.352539 9.783264 -27.44043 14.674896 -48.26367 14.674896c-13.529053 0 -25.146484 -1.8453369 -34.852295 -5.5360413c-9.6467285 -3.6907043 -18.028809 -7.762207 -25.146484 -12.214447c-7.1174316 -4.5108643 -13.323242 -8.611603 -18.617188 -12.302307c-5.2351074 -3.6907043 -10.088135 -5.5360413 -14.558594 -5.5360413c-3.470459 0 -6.6174316 0.84942627 -9.440918 2.5483398c-2.7646484 1.6989136 -5.1469727 3.8078613 -7.1469727 6.3269043l-21.08789 34.797974c7.588135 7.7914124 16.20581 14.850616 25.85254 21.17752c9.6467285 6.2683716 20.029053 11.657959 31.146484 16.168762c11.117432 4.4522705 22.734863 7.8793335 34.85205 10.28125c12.117432 2.4604492 24.411377 3.6906738 36.88159 3.6906738c21.646729 0 40.88159 -3.2806396 57.704834 -9.841858c16.823242 -6.5612183 31.058105 -15.55365 42.70508 -26.977173c11.6467285 -11.4236145 20.499512 -24.838959 26.558105 -40.246155c6.058838 -15.407227 9.088135 -31.92746 9.088135 -49.56076c0 -16.168762 -2.5881348 -29.906342 -7.7646484 -41.212738c-5.1174316 -11.36499 -11.940674 -20.943237 -20.46997 -28.73471c-8.470459 -7.8500366 -18.146729 -14.352692 -29.028809 -19.507935c-10.823486 -5.1552734 -21.88208 -9.666107 -33.17578 -13.532562c-11.293945 -3.8664246 -22.35254 -7.498535 -33.176025 -10.896332c-10.823242 -3.3977966 -20.499512 -7.264221 -29.028809 -11.599335c-8.470215 -4.335083 -15.293701 -9.54892 -20.46997 -15.64151c-5.117676 -6.1511536 -7.6765137 -13.796143 -7.6765137 -22.935028c0 -7.2056274 1.2646484 -13.825439 3.7941895 -19.859436c2.5292969 -6.0339966 6.352783 -11.218552 11.470215 -15.55365c5.1765137 -4.335083 11.5 -7.7035675 18.970215 -10.105469c7.529297 -2.4604645 16.352783 -3.690689 26.470215 -3.690689c11.234863 0 20.940674 1.4059753 29.116943 4.2179413c8.235107 2.8119507 15.411377 5.916809 21.529053 9.314606c6.1762695 3.3977814 11.529053 6.502655 16.05835 9.314606c4.529297 2.8119507 8.588135 4.2179413 12.17627 4.2179413c3.5881348 0 6.7058105 -0.8201599 9.352783 -2.4604645c2.6469727 -1.6403198 4.941162 -4.422989 6.882324 -8.348007l17.911377 -34.27072c-13.705566 -13.00531 -30.322998 -23.081482 -49.85205 -30.228546c-19.529053 -7.2056427 -40.85205 -10.808456 -63.96924 -10.808456z" fill-rule="evenodd"/><path stroke="#ffffff" stroke-width="8.0" stroke-linejoin="round" stroke-linecap="butt" d="m2591.2366 164.55138l0 390.59845l72.968994 0l0 -171.70517l23.028809 0c8.294189 0 14.705811 1.0545044 19.235107 3.1634521c4.529297 2.0503845 8.587891 5.4188538 12.176025 10.105469l110.82129 144.11282c2.941162 4.6865845 6.529297 8.260132 10.764648 10.720581c4.2351074 2.4019165 10.67627 3.6028442 19.322998 3.6028442l64.586914 0l-136.14429 -182.77725c-4.470459 -6.09256 -9.117432 -11.101349 -13.940918 -15.026398c-4.7644043 -3.9835815 -10.1467285 -7.0591736 -16.146729 -9.226715c4.3530273 -2.167572 8.411621 -4.9502563 12.17627 -8.348022c3.8234863 -3.4563599 7.823242 -7.7035522 11.999756 -12.741669l131.99731 -162.2148l-62.9104 0c-7.588135 0 -13.88208 1.1423645 -18.88208 3.4270782c-4.940918 2.2261353 -9.67627 6.2097473 -14.205566 11.950821l-108.08594 136.29207c-3.2939453 4.1593323 -7.2058105 7.2056274 -11.735107 9.138855c-4.470459 1.8746338 -10.1467285 2.8119507 -17.029053 2.8119507l-17.029053 0l0 -163.88438z" fill-rule="evenodd"/></g></svg>